<?xml version="1.0" encoding="utf-8"?>
<!-- Generator: Adobe Illustrator 22.1.0, SVG Export Plug-In . SVG Version: 6.00 Build 0)  -->
<svg version="1.1" id="Layer_1" xmlns="http://www.w3.org/2000/svg" xmlns:xlink="http://www.w3.org/1999/xlink" x="0px" y="0px"
	 viewBox="0 0 16.5 19.3" style="enable-background:new 0 0 16.5 19.3;" xml:space="preserve">
<style type="text/css">
	.st0{fill:#151B26;}
	.st1{fill:#FFFFFF;}
</style>
<circle class="st0" cx="8.3" cy="9.6" r="8.3"/>
<g>
	<path class="st1" d="M8.3,13.8c-1.7,0-3-0.9-3-2.4h1.5c0.1,0.7,0.5,1.2,1.5,1.2c1,0,1.5-0.5,1.5-1.2c0-2-4.4-0.7-4.4-3.8
		c0-1.5,1.2-2.4,2.9-2.4c1.6,0,2.7,0.8,2.8,2.3H9.5c0-0.6-0.5-1.1-1.4-1.1c-0.8,0-1.4,0.4-1.4,1.2c0,1.9,4.4,0.7,4.4,3.8
		C11.2,12.6,10.1,13.8,8.3,13.8z"/>
</g>
</svg>
