<?xml version="1.0" encoding="utf-8"?>
<!-- Generator: Adobe Illustrator 22.1.0, SVG Export Plug-In . SVG Version: 6.00 Build 0)  -->
<svg version="1.1" id="Layer_1" xmlns="http://www.w3.org/2000/svg" xmlns:xlink="http://www.w3.org/1999/xlink" x="0px" y="0px"
	 viewBox="0 0 300 300" style="enable-background:new 0 0 300 300;" xml:space="preserve">
<style type="text/css">
	.st0{fill:#FFFFFF;}
	.st1{fill:#151B26;}
</style>
<circle class="st0" cx="150" cy="150" r="150"/>
<g>
	<path class="st1" d="M150,225.9c-30.7,0-54.2-16.3-54.2-43.4h27.1c1.8,12.7,9,21.7,27.1,21.7s27.1-9,27.1-21.7
		c0-36.1-79.5-12.7-79.5-68.7c0-27.1,21.7-43.4,52.4-43.4c28.9,0,48.8,14.5,50.6,41.6h-28.9c0-10.8-9-19.9-25.3-19.9
		c-14.5,0-25.3,7.2-25.3,21.7c0,34.3,79.5,12.7,79.5,68.7C202.4,204.2,182.5,225.9,150,225.9z"/>
</g>
</svg>
